<?xml version="1.0" encoding="UTF-8"?>
<svg id="Layer_2" data-name="Layer 2" xmlns="http://www.w3.org/2000/svg" viewBox="0 0 713.99 175.33">
  <defs>
    <style>
      .cls-1 {
        fill: #fff;
        stroke-width: 0px;
      }
    </style>
  </defs>
  <g id="Layout">
    <g>
      <g>
        <path class="cls-1" d="M72.88,96.44c-6.21,2.83-13.36,4.25-21.46,4.25-7.38,0-14.2-1.21-20.45-3.64-6.25-2.43-11.67-5.87-16.26-10.33-4.59-4.45-8.19-9.79-10.8-15.99-2.61-6.21-3.91-13.04-3.91-20.52s1.33-14.58,3.98-20.79c2.65-6.21,6.32-11.49,11-15.86,4.68-4.36,10.17-7.71,16.47-10.06,6.3-2.34,13.09-3.51,20.38-3.51,6.75,0,13.38,1.19,19.91,3.58,6.52,2.38,11.81,5.87,15.86,10.46l-15.66,15.66c-2.16-2.97-4.99-5.17-8.5-6.61-3.51-1.44-7.11-2.16-10.8-2.16-4.05,0-7.76.74-11.13,2.23-3.37,1.49-6.28,3.53-8.71,6.14-2.43,2.61-4.32,5.69-5.67,9.25-1.35,3.56-2.02,7.45-2.02,11.67s.67,8.28,2.02,11.88c1.35,3.6,3.22,6.68,5.6,9.25,2.38,2.56,5.24,4.57,8.57,6.01,3.33,1.44,6.97,2.16,10.93,2.16,4.59,0,8.59-.9,12.01-2.7,3.42-1.8,6.16-4.14,8.23-7.02l16.06,15.12c-4.23,4.86-9.45,8.71-15.66,11.54Z"/>
        <path class="cls-1" d="M196.38,49.94c0,7.56-1.31,14.46-3.91,20.72-2.61,6.25-6.23,11.61-10.87,16.06-4.64,4.45-10.15,7.9-16.53,10.33-6.39,2.43-13.32,3.64-20.79,3.64s-14.37-1.21-20.72-3.64c-6.34-2.43-11.83-5.87-16.47-10.33-4.64-4.45-8.26-9.81-10.87-16.06-2.61-6.25-3.91-13.16-3.91-20.72s1.3-14.55,3.91-20.72c2.61-6.16,6.23-11.41,10.87-15.72,4.63-4.32,10.12-7.65,16.47-9.99,6.34-2.34,13.25-3.51,20.72-3.51s14.4,1.17,20.79,3.51c6.39,2.34,11.9,5.67,16.53,9.99,4.63,4.32,8.25,9.56,10.87,15.72,2.61,6.16,3.91,13.07,3.91,20.72ZM171.68,49.94c0-4.14-.67-8.01-2.02-11.61-1.35-3.6-3.22-6.68-5.6-9.25-2.39-2.56-5.26-4.59-8.64-6.07-3.37-1.48-7.09-2.23-11.14-2.23s-7.74.74-11.07,2.23c-3.33,1.49-6.21,3.51-8.64,6.07-2.43,2.56-4.3,5.65-5.6,9.25-1.31,3.6-1.96,7.47-1.96,11.61s.67,8.3,2.02,11.95c1.35,3.64,3.22,6.77,5.6,9.38,2.38,2.61,5.24,4.66,8.57,6.14,3.33,1.48,7.02,2.23,11.07,2.23s7.74-.74,11.07-2.23c3.33-1.49,6.21-3.53,8.64-6.14,2.43-2.61,4.32-5.74,5.67-9.38,1.35-3.64,2.02-7.63,2.02-11.95Z"/>
        <path class="cls-1" d="M262.11,27.4c-1.98-2.52-4.57-4.52-7.76-6.01-3.2-1.49-6.28-2.23-9.25-2.23-1.53,0-3.08.13-4.66.41-1.58.27-2.99.79-4.25,1.55-1.26.77-2.32,1.75-3.17,2.97-.86,1.21-1.28,2.77-1.28,4.66,0,1.62.34,2.97,1.01,4.05.67,1.08,1.66,2.03,2.97,2.83,1.3.81,2.86,1.55,4.66,2.23,1.8.67,3.82,1.37,6.07,2.09,3.24,1.08,6.61,2.27,10.12,3.58,3.51,1.31,6.7,3.04,9.58,5.2,2.88,2.16,5.26,4.84,7.15,8.03,1.89,3.19,2.83,7.18,2.83,11.94,0,5.49-1.01,10.24-3.04,14.24-2.02,4-4.75,7.31-8.17,9.92-3.42,2.61-7.33,4.54-11.74,5.8-4.41,1.26-8.95,1.89-13.63,1.89-6.84,0-13.45-1.19-19.84-3.58-6.39-2.38-11.7-5.78-15.93-10.19l15.12-15.39c2.34,2.88,5.42,5.29,9.25,7.22,3.82,1.94,7.63,2.9,11.41,2.9,1.71,0,3.37-.18,4.99-.54,1.62-.36,3.04-.94,4.25-1.75,1.21-.81,2.18-1.89,2.9-3.24.72-1.35,1.08-2.97,1.08-4.86s-.45-3.33-1.35-4.59c-.9-1.26-2.18-2.41-3.85-3.44-1.67-1.03-3.74-1.98-6.21-2.83-2.48-.85-5.29-1.78-8.44-2.77-3.06-.99-6.05-2.16-8.98-3.51-2.92-1.35-5.53-3.08-7.83-5.2-2.29-2.11-4.14-4.68-5.53-7.69-1.4-3.01-2.09-6.68-2.09-11,0-5.31,1.08-9.85,3.24-13.63s4.99-6.88,8.5-9.31c3.51-2.43,7.47-4.21,11.88-5.33,4.41-1.12,8.86-1.69,13.36-1.69,5.4,0,10.91.99,16.53,2.97,5.62,1.98,10.55,4.91,14.78,8.77l-14.71,15.52Z"/>
        <path class="cls-1" d="M378.05,98.12l.54-67.62h-.41l-24.83,67.62h-16.2l-24.16-67.62h-.4l.54,67.62h-21.73V2.56h32.84l21.76,61.28h.54l20.81-61.28h33.38v95.56h-22.67Z"/>
        <path class="cls-1" d="M506.95,98.12l.54-67.62h-.41l-24.83,67.62h-16.2l-24.16-67.62h-.41l.54,67.62h-21.73V2.56h32.84l21.76,61.28h.54l20.81-61.28h33.38v95.56h-22.67Z"/>
        <path class="cls-1" d="M627.27,77.81c-1.94,4.72-4.7,8.77-8.3,12.15-3.6,3.38-7.94,6.01-13.02,7.9-5.08,1.89-10.73,2.83-16.94,2.83s-11.97-.94-17.01-2.83c-5.04-1.89-9.31-4.52-12.82-7.9-3.51-3.37-6.21-7.42-8.1-12.15-1.89-4.72-2.83-9.96-2.83-15.72V2.56h22.95v57.63c0,2.61.34,5.08,1.01,7.42.67,2.34,1.71,4.43,3.1,6.28,1.39,1.85,3.24,3.31,5.53,4.39,2.29,1.08,5.06,1.62,8.3,1.62s6.01-.54,8.3-1.62c2.29-1.08,4.16-2.54,5.6-4.39,1.44-1.84,2.47-3.93,3.1-6.28.63-2.34.94-4.81.94-7.42V2.56h23.08v59.52c0,5.76-.97,11-2.9,15.72Z"/>
        <path class="cls-1" d="M699.28,27.4c-1.98-2.52-4.57-4.52-7.76-6.01-3.2-1.49-6.28-2.23-9.25-2.23-1.53,0-3.08.13-4.66.41-1.58.27-2.99.79-4.25,1.55-1.26.77-2.32,1.75-3.17,2.97-.86,1.21-1.28,2.77-1.28,4.66,0,1.62.34,2.97,1.01,4.05.67,1.08,1.66,2.03,2.97,2.83,1.3.81,2.86,1.55,4.66,2.23,1.8.67,3.82,1.37,6.07,2.09,3.24,1.08,6.61,2.27,10.12,3.58,3.51,1.31,6.7,3.04,9.58,5.2,2.88,2.16,5.26,4.84,7.15,8.03,1.89,3.19,2.83,7.18,2.83,11.94,0,5.49-1.01,10.24-3.04,14.24-2.02,4-4.75,7.31-8.17,9.92-3.42,2.61-7.33,4.54-11.74,5.8-4.41,1.26-8.95,1.89-13.63,1.89-6.84,0-13.45-1.19-19.84-3.58-6.39-2.38-11.7-5.78-15.93-10.19l15.12-15.39c2.34,2.88,5.42,5.29,9.25,7.22,3.82,1.94,7.63,2.9,11.41,2.9,1.71,0,3.37-.18,4.99-.54,1.62-.36,3.04-.94,4.25-1.75,1.21-.81,2.18-1.89,2.9-3.24.72-1.35,1.08-2.97,1.08-4.86s-.45-3.33-1.35-4.59c-.9-1.26-2.18-2.41-3.85-3.44-1.67-1.03-3.73-1.98-6.21-2.83-2.48-.85-5.29-1.78-8.44-2.77-3.06-.99-6.05-2.16-8.97-3.51-2.93-1.35-5.53-3.08-7.83-5.2-2.29-2.11-4.14-4.68-5.53-7.69-1.4-3.01-2.09-6.68-2.09-11,0-5.31,1.08-9.85,3.24-13.63,2.16-3.78,4.99-6.88,8.5-9.31,3.51-2.43,7.47-4.21,11.88-5.33,4.41-1.12,8.86-1.69,13.36-1.69,5.4,0,10.91.99,16.53,2.97,5.62,1.98,10.55,4.91,14.78,8.77l-14.71,15.52Z"/>
      </g>
      <g>
        <path class="cls-1" d="M130.01,159.5c0,2.72-.54,5.01-1.62,6.86-1.08,1.85-2.51,3.34-4.29,4.47-1.78,1.13-3.81,1.94-6.09,2.43-2.28.49-4.61.74-7,.74h-19.85v-49.83h19.85c1.92,0,3.89.2,5.91.6,2.02.4,3.85,1.08,5.49,2.04,1.64.96,2.98,2.26,4.01,3.91,1.03,1.64,1.55,3.73,1.55,6.26,0,2.77-.75,5.06-2.25,6.86-1.5,1.81-3.47,3.11-5.91,3.91v.14c1.41.24,2.73.67,3.98,1.3,1.24.63,2.32,1.44,3.24,2.43.92.99,1.64,2.14,2.18,3.45.54,1.31.81,2.79.81,4.43ZM116.36,138.6c0-1.69-.65-2.92-1.94-3.69-1.29-.77-3.2-1.16-5.74-1.16h-5.91v10.27h6.47c2.25,0,4-.46,5.24-1.37,1.24-.92,1.86-2.26,1.86-4.05ZM117.98,158.37c0-2.06-.77-3.49-2.32-4.29-1.55-.8-3.61-1.2-6.19-1.2h-6.69v11.4h6.76c.94,0,1.91-.08,2.92-.25,1.01-.16,1.92-.46,2.74-.88.82-.42,1.49-1.02,2.01-1.79.52-.77.77-1.77.77-2.99Z"/>
        <path class="cls-1" d="M206.83,163.4c-1.01,2.46-2.45,4.57-4.33,6.33-1.88,1.76-4.14,3.13-6.79,4.12-2.65.99-5.6,1.48-8.83,1.48s-6.24-.49-8.87-1.48c-2.63-.99-4.86-2.36-6.69-4.12-1.83-1.76-3.24-3.87-4.22-6.33-.98-2.46-1.48-5.2-1.48-8.2v-31.04h11.96v30.05c0,1.36.18,2.65.53,3.87.35,1.22.89,2.31,1.62,3.27.73.96,1.69,1.72,2.89,2.29,1.2.56,2.64.84,4.33.84s3.13-.28,4.33-.84c1.2-.56,2.17-1.32,2.92-2.29.75-.96,1.29-2.05,1.62-3.27.33-1.22.49-2.51.49-3.87v-30.05h12.03v31.04c0,3-.5,5.74-1.51,8.2Z"/>
        <path class="cls-1" d="M272.52,137.12c-1.03-1.31-2.38-2.36-4.05-3.13-1.67-.77-3.27-1.16-4.82-1.16-.8,0-1.61.07-2.43.21-.82.14-1.56.41-2.22.81-.66.4-1.21.92-1.65,1.55-.45.63-.67,1.44-.67,2.43,0,.84.18,1.55.53,2.11.35.56.87,1.06,1.55,1.48.68.42,1.49.81,2.43,1.16.94.35,1.99.72,3.17,1.09,1.69.56,3.45,1.19,5.28,1.87,1.83.68,3.49,1.58,5,2.71,1.5,1.13,2.75,2.52,3.73,4.19.99,1.67,1.48,3.74,1.48,6.23,0,2.86-.53,5.34-1.58,7.42s-2.48,3.81-4.26,5.17c-1.78,1.36-3.82,2.37-6.12,3.03-2.3.66-4.67.99-7.11.99-3.57,0-7.01-.62-10.35-1.87-3.33-1.24-6.1-3.01-8.3-5.31l7.88-8.02c1.22,1.5,2.83,2.76,4.82,3.77,1.99,1.01,3.98,1.51,5.95,1.51.89,0,1.76-.09,2.6-.28.84-.19,1.58-.49,2.22-.92.63-.42,1.14-.99,1.51-1.69.38-.7.56-1.55.56-2.53s-.23-1.74-.7-2.39c-.47-.66-1.14-1.25-2.01-1.79-.87-.54-1.95-1.03-3.24-1.48-1.29-.45-2.76-.93-4.4-1.44-1.6-.52-3.16-1.13-4.68-1.83-1.53-.7-2.89-1.61-4.08-2.71-1.2-1.1-2.16-2.44-2.89-4.01-.73-1.57-1.09-3.48-1.09-5.74,0-2.77.56-5.14,1.69-7.11,1.13-1.97,2.6-3.59,4.43-4.86s3.89-2.19,6.19-2.78c2.3-.59,4.62-.88,6.97-.88,2.82,0,5.69.52,8.62,1.55,2.93,1.03,5.5,2.56,7.71,4.57l-7.67,8.09Z"/>
        <path class="cls-1" d="M315.94,174v-49.83h12.1v49.83h-12.1Z"/>
        <path class="cls-1" d="M398.14,174l-20.06-32.58h-.21l.28,32.58h-11.68v-49.83h13.72l19.99,32.51h.21l-.28-32.51h11.68v49.83h-13.65Z"/>
        <path class="cls-1" d="M450.22,174v-49.83h33.5v10.13h-21.89v9.43h20.69v9.64h-20.69v10.34h23.15v10.28h-34.77Z"/>
        <path class="cls-1" d="M547.41,137.12c-1.03-1.31-2.38-2.36-4.05-3.13s-3.27-1.16-4.82-1.16c-.8,0-1.61.07-2.43.21-.82.14-1.56.41-2.22.81-.66.4-1.21.92-1.65,1.55-.45.63-.67,1.44-.67,2.43,0,.84.18,1.55.53,2.11.35.56.87,1.06,1.55,1.48.68.42,1.49.81,2.43,1.16.94.35,1.99.72,3.17,1.09,1.69.56,3.45,1.19,5.28,1.87,1.83.68,3.49,1.58,5,2.71,1.5,1.13,2.75,2.52,3.73,4.19.99,1.67,1.48,3.74,1.48,6.23,0,2.86-.53,5.34-1.58,7.42s-2.48,3.81-4.26,5.17c-1.78,1.36-3.83,2.37-6.12,3.03-2.3.66-4.67.99-7.11.99-3.57,0-7.01-.62-10.34-1.87-3.33-1.24-6.1-3.01-8.3-5.31l7.88-8.02c1.22,1.5,2.83,2.76,4.82,3.77,1.99,1.01,3.98,1.51,5.95,1.51.89,0,1.76-.09,2.6-.28s1.58-.49,2.22-.92c.63-.42,1.14-.99,1.51-1.69.38-.7.56-1.55.56-2.53s-.24-1.74-.7-2.39c-.47-.66-1.14-1.25-2.01-1.79-.87-.54-1.95-1.03-3.24-1.48-1.29-.45-2.76-.93-4.4-1.44-1.6-.52-3.16-1.13-4.68-1.83-1.53-.7-2.89-1.61-4.08-2.71-1.2-1.1-2.16-2.44-2.89-4.01-.73-1.57-1.09-3.48-1.09-5.74,0-2.77.56-5.14,1.69-7.11,1.13-1.97,2.6-3.59,4.43-4.86s3.89-2.19,6.19-2.78c2.3-.59,4.62-.88,6.97-.88,2.82,0,5.69.52,8.62,1.55,2.93,1.03,5.5,2.56,7.71,4.57l-7.67,8.09Z"/>
        <path class="cls-1" d="M617.15,137.12c-1.03-1.31-2.38-2.36-4.05-3.13s-3.27-1.16-4.82-1.16c-.8,0-1.61.07-2.43.21-.82.14-1.56.41-2.22.81-.66.4-1.21.92-1.65,1.55-.45.63-.67,1.44-.67,2.43,0,.84.18,1.55.53,2.11.35.56.87,1.06,1.55,1.48.68.42,1.49.81,2.43,1.16.94.35,1.99.72,3.17,1.09,1.69.56,3.45,1.19,5.28,1.87,1.83.68,3.49,1.58,5,2.71,1.5,1.13,2.75,2.52,3.73,4.19.99,1.67,1.48,3.74,1.48,6.23,0,2.86-.53,5.34-1.58,7.42s-2.48,3.81-4.26,5.17c-1.78,1.36-3.83,2.37-6.12,3.03-2.3.66-4.67.99-7.11.99-3.57,0-7.01-.62-10.34-1.87-3.33-1.24-6.1-3.01-8.3-5.31l7.88-8.02c1.22,1.5,2.83,2.76,4.82,3.77,1.99,1.01,3.98,1.51,5.95,1.51.89,0,1.76-.09,2.6-.28s1.58-.49,2.22-.92c.63-.42,1.14-.99,1.51-1.69.38-.7.56-1.55.56-2.53s-.24-1.74-.7-2.39c-.47-.66-1.14-1.25-2.01-1.79-.87-.54-1.95-1.03-3.24-1.48-1.29-.45-2.76-.93-4.4-1.44-1.6-.52-3.16-1.13-4.68-1.83-1.53-.7-2.89-1.61-4.08-2.71-1.2-1.1-2.16-2.44-2.89-4.01-.73-1.57-1.09-3.48-1.09-5.74,0-2.77.56-5.14,1.69-7.11,1.13-1.97,2.6-3.59,4.43-4.86s3.89-2.19,6.19-2.78c2.3-.59,4.62-.88,6.97-.88,2.82,0,5.69.52,8.62,1.55,2.93,1.03,5.5,2.56,7.71,4.57l-7.67,8.09Z"/>
      </g>
    </g>
  </g>
</svg>