<?xml version="1.0" encoding="UTF-8"?>
<svg id="Layer_2" data-name="Layer 2" xmlns="http://www.w3.org/2000/svg" viewBox="0 0 713.99 100.69">
  <defs>
    <style>
      .cls-1 {
        fill: #fff;
        stroke-width: 0px;
      }
    </style>
  </defs>
  <g id="Layout">
    <g>
      <path class="cls-1" d="M72.88,96.44c-6.21,2.83-13.36,4.25-21.46,4.25-7.38,0-14.2-1.21-20.45-3.64-6.25-2.43-11.67-5.87-16.26-10.33-4.59-4.45-8.19-9.79-10.8-15.99-2.61-6.21-3.91-13.04-3.91-20.52s1.33-14.58,3.98-20.79c2.65-6.21,6.32-11.49,11-15.86,4.68-4.36,10.17-7.71,16.47-10.06,6.3-2.34,13.09-3.51,20.38-3.51,6.75,0,13.38,1.19,19.91,3.58,6.52,2.38,11.81,5.87,15.86,10.46l-15.66,15.66c-2.16-2.97-4.99-5.17-8.5-6.61-3.51-1.44-7.11-2.16-10.8-2.16-4.05,0-7.76.74-11.13,2.23-3.37,1.49-6.28,3.53-8.71,6.14-2.43,2.61-4.32,5.69-5.67,9.25-1.35,3.56-2.02,7.45-2.02,11.67s.67,8.28,2.02,11.88c1.35,3.6,3.22,6.68,5.6,9.25,2.38,2.56,5.24,4.57,8.57,6.01,3.33,1.44,6.97,2.16,10.93,2.16,4.59,0,8.59-.9,12.01-2.7,3.42-1.8,6.16-4.14,8.23-7.02l16.06,15.12c-4.23,4.86-9.45,8.71-15.66,11.54Z"/>
      <path class="cls-1" d="M196.38,49.94c0,7.56-1.31,14.46-3.91,20.72-2.61,6.25-6.23,11.61-10.87,16.06-4.64,4.45-10.15,7.9-16.53,10.33-6.39,2.43-13.32,3.64-20.79,3.64s-14.37-1.21-20.72-3.64c-6.34-2.43-11.83-5.87-16.47-10.33-4.64-4.45-8.26-9.81-10.87-16.06-2.61-6.25-3.91-13.16-3.91-20.72s1.3-14.55,3.91-20.72c2.61-6.16,6.23-11.41,10.87-15.72,4.63-4.32,10.12-7.65,16.47-9.99,6.34-2.34,13.25-3.51,20.72-3.51s14.4,1.17,20.79,3.51c6.39,2.34,11.9,5.67,16.53,9.99,4.63,4.32,8.25,9.56,10.87,15.72,2.61,6.16,3.91,13.07,3.91,20.72ZM171.68,49.94c0-4.14-.67-8.01-2.02-11.61-1.35-3.6-3.22-6.68-5.6-9.25-2.39-2.56-5.26-4.59-8.64-6.07-3.37-1.48-7.09-2.23-11.14-2.23s-7.74.74-11.07,2.23c-3.33,1.49-6.21,3.51-8.64,6.07-2.43,2.56-4.3,5.65-5.6,9.25-1.31,3.6-1.96,7.47-1.96,11.61s.67,8.3,2.02,11.95c1.35,3.64,3.22,6.77,5.6,9.38,2.38,2.61,5.24,4.66,8.57,6.14,3.33,1.48,7.02,2.23,11.07,2.23s7.74-.74,11.07-2.23c3.33-1.49,6.21-3.53,8.64-6.14,2.43-2.61,4.32-5.74,5.67-9.38,1.35-3.64,2.02-7.63,2.02-11.95Z"/>
      <path class="cls-1" d="M262.11,27.4c-1.98-2.52-4.57-4.52-7.76-6.01-3.2-1.49-6.28-2.23-9.25-2.23-1.53,0-3.08.13-4.66.41-1.58.27-2.99.79-4.25,1.55-1.26.77-2.32,1.75-3.17,2.97-.86,1.21-1.28,2.77-1.28,4.66,0,1.62.34,2.97,1.01,4.05.67,1.08,1.66,2.03,2.97,2.83,1.3.81,2.86,1.55,4.66,2.23,1.8.67,3.82,1.37,6.07,2.09,3.24,1.08,6.61,2.27,10.12,3.58,3.51,1.31,6.7,3.04,9.58,5.2,2.88,2.16,5.26,4.84,7.15,8.03,1.89,3.19,2.83,7.18,2.83,11.94,0,5.49-1.01,10.24-3.04,14.24-2.02,4-4.75,7.31-8.17,9.92-3.42,2.61-7.33,4.54-11.74,5.8-4.41,1.26-8.95,1.89-13.63,1.89-6.84,0-13.45-1.19-19.84-3.58-6.39-2.38-11.7-5.78-15.93-10.19l15.12-15.39c2.34,2.88,5.42,5.29,9.25,7.22,3.82,1.94,7.63,2.9,11.41,2.9,1.71,0,3.37-.18,4.99-.54,1.62-.36,3.04-.94,4.25-1.75,1.21-.81,2.18-1.89,2.9-3.24.72-1.35,1.08-2.97,1.08-4.86s-.45-3.33-1.35-4.59c-.9-1.26-2.18-2.41-3.85-3.44-1.67-1.03-3.74-1.98-6.21-2.83-2.48-.85-5.29-1.78-8.44-2.77-3.06-.99-6.05-2.16-8.98-3.51-2.92-1.35-5.53-3.08-7.83-5.2-2.29-2.11-4.14-4.68-5.53-7.69-1.4-3.01-2.09-6.68-2.09-11,0-5.31,1.08-9.85,3.24-13.63s4.99-6.88,8.5-9.31c3.51-2.43,7.47-4.21,11.88-5.33,4.41-1.12,8.86-1.69,13.36-1.69,5.4,0,10.91.99,16.53,2.97,5.62,1.98,10.55,4.91,14.78,8.77l-14.71,15.52Z"/>
      <path class="cls-1" d="M378.05,98.12l.54-67.62h-.41l-24.83,67.62h-16.2l-24.16-67.62h-.4l.54,67.62h-21.73V2.56h32.84l21.76,61.28h.54l20.81-61.28h33.38v95.56h-22.67Z"/>
      <path class="cls-1" d="M506.95,98.12l.54-67.62h-.41l-24.83,67.62h-16.2l-24.16-67.62h-.41l.54,67.62h-21.73V2.56h32.84l21.76,61.28h.54l20.81-61.28h33.38v95.56h-22.67Z"/>
      <path class="cls-1" d="M627.27,77.81c-1.94,4.72-4.7,8.77-8.3,12.15-3.6,3.38-7.94,6.01-13.02,7.9-5.08,1.89-10.73,2.83-16.94,2.83s-11.97-.94-17.01-2.83c-5.04-1.89-9.31-4.52-12.82-7.9-3.51-3.37-6.21-7.42-8.1-12.15-1.89-4.72-2.83-9.96-2.83-15.72V2.56h22.95v57.63c0,2.61.34,5.08,1.01,7.42.67,2.34,1.71,4.43,3.1,6.28,1.39,1.85,3.24,3.31,5.53,4.39,2.29,1.08,5.06,1.62,8.3,1.62s6.01-.54,8.3-1.62c2.29-1.08,4.16-2.54,5.6-4.39,1.44-1.84,2.47-3.93,3.1-6.28.63-2.34.94-4.81.94-7.42V2.56h23.08v59.52c0,5.76-.97,11-2.9,15.72Z"/>
      <path class="cls-1" d="M699.28,27.4c-1.98-2.52-4.57-4.52-7.76-6.01-3.2-1.49-6.28-2.23-9.25-2.23-1.53,0-3.08.13-4.66.41-1.58.27-2.99.79-4.25,1.55-1.26.77-2.32,1.75-3.17,2.97-.86,1.21-1.28,2.77-1.28,4.66,0,1.62.34,2.97,1.01,4.05.67,1.08,1.66,2.03,2.97,2.83,1.3.81,2.86,1.55,4.66,2.23,1.8.67,3.82,1.37,6.07,2.09,3.24,1.08,6.61,2.27,10.12,3.58,3.51,1.31,6.7,3.04,9.58,5.2,2.88,2.16,5.26,4.84,7.15,8.03,1.89,3.19,2.83,7.18,2.83,11.94,0,5.49-1.01,10.24-3.04,14.24-2.02,4-4.75,7.31-8.17,9.92-3.42,2.61-7.33,4.54-11.74,5.8-4.41,1.26-8.95,1.89-13.63,1.89-6.84,0-13.45-1.19-19.84-3.58-6.39-2.38-11.7-5.78-15.93-10.19l15.12-15.39c2.34,2.88,5.42,5.29,9.25,7.22,3.82,1.94,7.63,2.9,11.41,2.9,1.71,0,3.37-.18,4.99-.54,1.62-.36,3.04-.94,4.25-1.75,1.21-.81,2.18-1.89,2.9-3.24.72-1.35,1.08-2.97,1.08-4.86s-.45-3.33-1.35-4.59c-.9-1.26-2.18-2.41-3.85-3.44-1.67-1.03-3.73-1.98-6.21-2.83-2.48-.85-5.29-1.78-8.44-2.77-3.06-.99-6.05-2.16-8.97-3.51-2.93-1.35-5.53-3.08-7.83-5.2-2.29-2.11-4.14-4.68-5.53-7.69-1.4-3.01-2.09-6.68-2.09-11,0-5.31,1.08-9.85,3.24-13.63,2.16-3.78,4.99-6.88,8.5-9.31,3.51-2.43,7.47-4.21,11.88-5.33,4.41-1.12,8.86-1.69,13.36-1.69,5.4,0,10.91.99,16.53,2.97,5.62,1.98,10.55,4.91,14.78,8.77l-14.71,15.52Z"/>
    </g>
  </g>
</svg>